<svg width="709" height="154" viewBox="0 0 709 154" fill="none" xmlns="http://www.w3.org/2000/svg">
<path d="M92.6262 8.94739V117.044H72.2923V71.9433H64.2123C42.8082 71.9433 20.2162 77.9689 20.2162 117.023H0V8.94739H20.2269V74.2337C31.3356 56.7883 49.1224 53.3956 60.9803 53.3956C62.4587 53.397 63.923 53.1071 65.2895 52.5426C66.656 51.9781 67.8979 51.1499 68.9444 50.1054C69.9908 49.0609 70.8213 47.8205 71.3884 46.455C71.9555 45.0895 72.2481 43.6256 72.2495 42.1471V8.96879L92.6262 8.94739Z" fill="white"/>
<path d="M184.322 87.9974C184.322 108.686 171.351 119.345 148.662 119.345C123.652 119.345 108.369 100.659 108.369 75.3361C108.369 45.3686 128.896 32.5789 147.731 31.1876C170.12 29.6464 182.77 40.9056 182.77 56.3496C182.77 65.4575 180.308 72.7139 167.958 78.1188L133.07 92.942C134.618 95.4836 136.793 97.585 139.387 99.0449C141.98 100.505 144.905 101.274 147.881 101.279C156.999 101.279 164.095 97.4157 164.095 87.9974H184.322ZM128.746 78.8894L157.46 66.5385C160.67 65.1472 163.324 63.606 163.324 59.5925C163.324 52.9568 156.839 48.6329 149.412 48.6329C139.683 48.6329 128.575 56.0392 128.575 75.3896C128.559 76.5586 128.616 77.7275 128.746 78.8894Z" fill="white"/>
<path d="M199.903 117.023V0H219.392V117.023H199.903Z" fill="white"/>
<path d="M237.875 117.023V0H257.332V117.023H237.875Z" fill="white"/>
<path d="M359.588 74.5441C359.408 86.1156 354.685 97.1522 346.439 105.271C338.192 113.391 327.084 117.942 315.512 117.942C303.94 117.942 292.832 113.391 284.585 105.271C276.339 97.1522 271.616 86.1156 271.436 74.5441C271.436 50.1527 290.271 30.3849 315.442 30.3849C340.614 30.3849 359.588 50.1527 359.588 74.5441ZM339.522 74.5441C339.522 61.1123 331.185 48.6115 315.442 48.6115C299.7 48.6115 291.459 61.1123 291.459 74.5441C291.459 87.8154 299.796 100.327 315.389 100.327C330.982 100.327 339.468 87.8154 339.468 74.5441H339.522Z" fill="white"/>
<path d="M359.728 124.408C358.059 122.699 355.836 121.641 353.457 121.421C351.079 121.201 348.7 121.835 346.746 123.209C337.314 130.182 325.821 133.8 314.095 133.485C302.37 133.171 291.087 128.944 282.042 121.475C280.085 119.949 277.634 119.201 275.159 119.372C272.683 119.544 270.359 120.625 268.632 122.406C267.618 123.432 266.83 124.659 266.32 126.008C265.811 127.357 265.59 128.798 265.673 130.238C265.755 131.678 266.14 133.084 266.801 134.366C267.462 135.648 268.385 136.777 269.51 137.679C282.03 147.838 297.56 153.568 313.678 153.977C329.796 154.385 345.596 149.449 358.615 139.937C359.802 139.062 360.786 137.94 361.5 136.649C362.214 135.358 362.641 133.927 362.752 132.456C362.863 130.985 362.655 129.507 362.142 128.124C361.629 126.74 360.824 125.484 359.781 124.44L359.728 124.408Z" fill="#5CA782"/>
<path d="M447.217 84.8721C447.217 105.207 430.543 117.483 410.188 117.483C389.833 117.483 373.148 102.746 373.148 82.4105H392.337C392.337 92.7385 399.828 98.7856 410.926 98.7856C420.558 98.7856 428.05 95.243 428.05 84.8721C428.05 62.739 376.412 77.4979 376.412 40.3169C376.412 21.4267 389.394 11.8371 409.749 11.8371C430.104 11.8371 443.065 23.9418 443.065 44.2983H423.908C423.908 34.12 418.889 30.5774 409.738 30.5774C400.588 30.5774 395.58 34.2485 395.58 40.9055C395.58 62.739 447.217 44.8869 447.217 84.8721Z" fill="#5CA782"/>
<path d="M530.735 79.4139C530.735 86.9433 528.503 94.3036 524.32 100.564C520.137 106.825 514.192 111.704 507.236 114.585C500.28 117.467 492.626 118.221 485.242 116.752C477.857 115.283 471.074 111.657 465.751 106.333C460.427 101.009 456.801 94.2256 455.333 86.8409C453.864 79.4561 454.618 71.8016 457.499 64.8454C460.38 57.8891 465.259 51.9435 471.519 47.7603C477.779 43.5772 485.139 41.3445 492.668 41.3445C497.67 41.3332 502.626 42.3102 507.249 44.2194C511.873 46.1285 516.074 48.9323 519.611 52.4696C523.148 56.0069 525.952 60.2081 527.861 64.832C529.77 69.4559 530.747 74.4114 530.735 79.4139ZM473.79 79.4139C473.79 90.3306 481.902 98.7429 492.818 98.7429C503.734 98.7429 511.557 90.3306 511.557 79.4139C511.557 68.4972 503.734 60.0849 492.818 60.0849C481.902 60.0849 473.79 68.4972 473.79 79.4139Z" fill="#5CA782"/>
<path d="M538.87 23.2035C538.961 20.2311 540.205 17.4109 542.34 15.3405C544.474 13.2701 547.331 12.1122 550.305 12.1122C553.278 12.1122 556.135 13.2701 558.27 15.3405C560.404 17.4109 561.649 20.2311 561.74 23.2035C561.787 24.7347 561.526 26.2597 560.972 27.6881C560.418 29.1165 559.584 30.4191 558.517 31.5188C557.451 32.6185 556.174 33.4928 554.764 34.0898C553.353 34.6869 551.837 34.9945 550.305 34.9945C548.773 34.9945 547.257 34.6869 545.846 34.0898C544.435 33.4928 543.159 32.6185 542.092 31.5188C541.026 30.4191 540.191 29.1165 539.637 27.6881C539.084 26.2597 538.823 24.7347 538.87 23.2035ZM550.374 42.5325C552.929 42.5325 555.379 43.5473 557.185 45.3538C558.991 47.1602 560.006 49.6102 560.006 52.1649V116.381H540.785V52.1649C540.785 49.6176 541.794 47.1741 543.591 45.3689C545.388 43.5637 547.827 42.5438 550.374 42.5325Z" fill="#5CA782"/>
<path d="M636.986 116.295H617.808V77.498C617.808 65.7251 613.966 60.0848 604.526 60.0848C595.087 60.0848 591.245 65.693 591.245 77.498V116.295H572.067V77.498C572.067 52.7106 585.637 41.3444 604.526 41.3444C623.416 41.3444 636.986 52.7106 636.986 77.498V116.295Z" fill="#5CA782"/>
<path d="M646.254 91.6897H664.212C664.212 96.3239 670.002 99.5026 677.825 99.5026C685.648 99.5026 689.694 96.2918 689.694 92.5566C689.694 80.5375 646.982 92.1178 646.982 63.456C646.982 50.7092 660.156 41.5905 676.948 41.5905C693.739 41.5905 706.485 49.9921 706.485 65.329H688.538C688.538 61.1336 682.887 58.2438 676.659 58.2438C670.43 58.2438 665.807 61.1336 665.807 64.9009C665.807 75.3253 708.23 65.6287 708.519 92.9847C708.658 109.199 695.045 116.295 677.386 116.295C661.173 116.295 646.254 107.904 646.254 91.6897Z" fill="#5CA782"/>
</svg>
