<svg width="149" height="33" viewBox="0 0 149 33" fill="none" xmlns="http://www.w3.org/2000/svg">
<path d="M19.4507 2.20947V24.9089H15.1808V15.4381H13.484C8.98935 15.4381 4.24522 16.7034 4.24522 24.9044H0V2.20947H4.24747V15.919C6.5802 12.2557 10.3153 11.5432 12.8053 11.5432C13.1158 11.5435 13.4233 11.4826 13.7102 11.3641C13.9972 11.2455 14.258 11.0716 14.4777 10.8523C14.6975 10.633 14.8719 10.3725 14.991 10.0857C15.11 9.799 15.1715 9.49161 15.1718 9.18112V2.21397L19.4507 2.20947Z" fill="#405969"/>
<path d="M38.7057 18.8093C38.7057 23.1537 35.9819 25.3921 31.2176 25.3921C25.9655 25.3921 22.7563 21.4681 22.7563 16.1505C22.7563 9.85763 27.0667 7.1719 31.0221 6.87973C35.7235 6.55609 38.3798 8.92043 38.3798 12.1635C38.3798 14.0761 37.863 15.5999 35.2695 16.7349L27.9432 19.8476C28.2684 20.3813 28.7251 20.8226 29.2698 21.1292C29.8144 21.4357 30.4286 21.5973 31.0535 21.5984C32.9682 21.5984 34.4582 20.7871 34.4582 18.8093H38.7057ZM27.0353 16.8967L33.0649 14.3031C33.7391 14.0109 34.2964 13.6873 34.2964 12.8445C34.2964 11.4511 32.9345 10.5431 31.3749 10.5431C29.3321 10.5431 26.9993 12.0984 26.9993 16.1618C26.996 16.4073 27.008 16.6527 27.0353 16.8967Z" fill="#405969"/>
<path d="M41.978 24.9044V0.330566H46.0704V24.9044H41.978Z" fill="#405969"/>
<path d="M49.9517 24.9044V0.330566H54.0373V24.9044H49.9517Z" fill="#405969"/>
<path d="M75.5108 15.9845C75.473 18.4144 74.4812 20.732 72.7495 22.437C71.0179 24.1419 68.6852 25.0976 66.2552 25.0976C63.8251 25.0976 61.4925 24.1419 59.7608 22.437C58.0292 20.732 57.0374 18.4144 56.9995 15.9845C56.9995 10.8625 60.9548 6.71143 66.2406 6.71143C71.5263 6.71143 75.5108 10.8625 75.5108 15.9845ZM71.2971 15.9845C71.2971 13.1639 69.5464 10.5389 66.2406 10.5389C62.9347 10.5389 61.2043 13.1639 61.2043 15.9845C61.2043 18.7713 62.955 21.3986 66.2293 21.3986C69.5037 21.3986 71.2858 18.7713 71.2858 15.9845H71.2971Z" fill="#405969"/>
<path d="M75.5395 26.4556C75.189 26.0968 74.7222 25.8745 74.2228 25.8283C73.7233 25.7822 73.2238 25.9153 72.8135 26.2038C70.8328 27.6681 68.4193 28.4277 65.9571 28.3617C63.4949 28.2958 61.1255 27.408 59.2261 25.8397C58.8152 25.5193 58.3004 25.3621 57.7807 25.3981C57.2609 25.4342 56.7728 25.6611 56.4101 26.0353C56.1972 26.2506 56.0318 26.5082 55.9247 26.7915C55.8177 27.0749 55.7713 27.3775 55.7887 27.6799C55.8061 27.9822 55.8868 28.2776 56.0256 28.5467C56.1644 28.8159 56.3582 29.0529 56.5944 29.2424C59.2236 31.3756 62.4848 32.579 65.8694 32.6647C69.254 32.7505 72.5719 31.7139 75.3058 29.7166C75.5551 29.5327 75.7617 29.2971 75.9117 29.026C76.0616 28.7549 76.1513 28.4546 76.1745 28.1456C76.1978 27.8367 76.1541 27.5264 76.0464 27.2359C75.9388 26.9453 75.7697 26.6815 75.5507 26.4623L75.5395 26.4556Z" fill="#5CA782"/>
<path d="M93.9117 18.1531C93.9117 22.4233 90.4104 25.0012 86.1359 25.0012C81.8615 25.0012 78.3579 21.9064 78.3579 17.6362H82.3874C82.3874 19.805 83.9605 21.0748 86.291 21.0748C88.3136 21.0748 89.8868 20.3309 89.8868 18.1531C89.8868 13.5054 79.0433 16.6046 79.0433 8.79692C79.0433 4.83014 81.7694 2.81641 86.0438 2.81641C90.3182 2.81641 93.0398 5.35829 93.0398 9.63298H89.017C89.017 7.49564 87.963 6.75172 86.0416 6.75172C84.1201 6.75172 83.0683 7.52261 83.0683 8.92053C83.0683 13.5054 93.9117 9.75659 93.9117 18.1531Z" fill="#5CA782"/>
<path d="M111.45 17.007C111.45 18.5881 110.981 20.1337 110.103 21.4483C109.224 22.763 107.976 23.7876 106.515 24.3927C105.055 24.9977 103.447 25.1561 101.897 24.8476C100.346 24.5391 98.9217 23.7778 97.8037 22.6597C96.6858 21.5417 95.9244 20.1173 95.616 18.5666C95.3076 17.0158 95.4659 15.4085 96.0709 13.9477C96.6759 12.4869 97.7005 11.2384 99.0151 10.36C100.33 9.48157 101.875 9.01272 103.456 9.01272C104.507 9.01034 105.547 9.2155 106.518 9.61641C107.489 10.0173 108.371 10.6061 109.114 11.3489C109.857 12.0917 110.445 12.9739 110.846 13.9449C111.247 14.9159 111.452 15.9565 111.45 17.007ZM99.4919 17.007C99.4919 19.2994 101.195 21.0659 103.488 21.0659C105.78 21.0659 107.423 19.2994 107.423 17.007C107.423 14.7145 105.78 12.948 103.488 12.948C101.195 12.948 99.4919 14.7145 99.4919 17.007Z" fill="#5CA782"/>
<path d="M113.158 5.20358C113.177 4.5794 113.438 3.98718 113.887 3.55242C114.335 3.11766 114.935 2.87451 115.559 2.87451C116.184 2.87451 116.783 3.11766 117.232 3.55242C117.68 3.98718 117.941 4.5794 117.96 5.20358C117.97 5.52512 117.915 5.84537 117.799 6.14531C117.683 6.44526 117.508 6.71881 117.284 6.94973C117.06 7.18066 116.792 7.36425 116.495 7.48962C116.199 7.615 115.881 7.6796 115.559 7.6796C115.237 7.6796 114.919 7.615 114.623 7.48962C114.327 7.36425 114.059 7.18066 113.835 6.94973C113.611 6.71881 113.435 6.44526 113.319 6.14531C113.203 5.84537 113.148 5.52512 113.158 5.20358ZM115.574 9.26251C116.11 9.26251 116.625 9.47562 117.004 9.85495C117.383 10.2343 117.596 10.7488 117.596 11.2852V24.77H113.56V11.2852C113.56 10.7503 113.772 10.2372 114.149 9.85812C114.527 9.47905 115.039 9.26489 115.574 9.26251Z" fill="#5CA782"/>
<path d="M133.762 24.7517H129.735V16.6046C129.735 14.1324 128.928 12.948 126.946 12.948C124.963 12.948 124.157 14.1257 124.157 16.6046V24.7517H120.129V16.6046C120.129 11.3995 122.979 9.0127 126.946 9.0127C130.912 9.0127 133.762 11.3995 133.762 16.6046V24.7517Z" fill="#5CA782"/>
<path d="M135.708 19.5844H139.479C139.479 20.5575 140.695 21.225 142.338 21.225C143.98 21.225 144.83 20.5508 144.83 19.7664C144.83 17.2425 135.861 19.6743 135.861 13.6555C135.861 10.9788 138.627 9.06396 142.153 9.06396C145.679 9.06396 148.356 10.8282 148.356 14.0489H144.587C144.587 13.1678 143.401 12.561 142.093 12.561C140.785 12.561 139.814 13.1678 139.814 13.959C139.814 16.148 148.722 14.1118 148.783 19.8563C148.812 23.2612 145.954 24.7513 142.246 24.7513C138.841 24.7513 135.708 22.9893 135.708 19.5844Z" fill="#5CA782"/>
</svg>
